<svg width="80" height="40" viewBox="0 0 80 40" fill="none" xmlns="http://www.w3.org/2000/svg">
<rect x="27" y="14" width="26" height="18" rx="4" fill="#AEAEB2"/>
<rect x="26" y="17" width="11" height="5" rx="2.5" transform="rotate(90 26 17)" fill="#AEAEB2"/>
<rect x="59" y="17" width="11" height="5" rx="2.5" transform="rotate(90 59 17)" fill="#AEAEB2"/>
<path d="M67.0173 15.3571C67.1788 14.9029 67.8212 14.9029 67.9827 15.3571L68.0117 15.4384C68.6738 17.2999 69.8745 18.9225 71.461 20.1V20.1C71.7294 20.2991 71.7294 20.7009 71.461 20.9V20.9C69.8745 22.0775 68.6738 23.7001 68.0117 25.5615L67.9827 25.6429C67.8212 26.0971 67.1788 26.0971 67.0173 25.6429L66.9883 25.5616C66.3262 23.7001 65.1255 22.0775 63.539 20.9V20.9C63.2706 20.7009 63.2706 20.2991 63.539 20.1V20.1C65.1255 18.9225 66.3262 17.2999 66.9883 15.4384L67.0173 15.3571Z" stroke="#AEAEB2" stroke-width="2"/>
<path d="M73.7432 24.8746C73.8178 24.6205 74.1822 24.6205 74.2568 24.8746V24.8746C74.5304 25.8065 75.0613 26.656 75.7835 27.3053V27.3053C75.8992 27.4093 75.8992 27.5907 75.7835 27.6947V27.6947C75.0613 28.344 74.5304 29.1935 74.2568 30.1254V30.1254C74.1822 30.3795 73.8178 30.3795 73.7432 30.1254V30.1254C73.4696 29.1935 72.9387 28.344 72.2165 27.6947V27.6947C72.1008 27.5907 72.1008 27.4093 72.2165 27.3053V27.3053C72.9387 26.656 73.4696 25.8065 73.7432 24.8746V24.8746Z" stroke="#AEAEB2" stroke-width="2"/>
<path d="M10.5891 21.0996C10.7312 20.7195 11.2688 20.7195 11.4109 21.0996L11.4366 21.1685C12.0367 22.7743 13.1065 24.1623 14.5067 25.1515V25.1515C14.7473 25.3215 14.7473 25.6785 14.5067 25.8485V25.8485C13.1065 26.8377 12.0367 28.2257 11.4366 29.8315L11.4109 29.9004C11.2688 30.2805 10.7312 30.2805 10.5891 29.9004L10.5634 29.8315C9.9633 28.2257 8.89349 26.8377 7.49332 25.8485V25.8485C7.25265 25.6785 7.25265 25.3215 7.49332 25.1515V25.1515C8.89349 24.1623 9.9633 22.7743 10.5634 21.1685L10.5891 21.0996Z" stroke="#AEAEB2" stroke-width="2"/>
<rect x="37" y="7" width="6" height="6" rx="3" fill="#AEAEB2"/>
</svg>
