<svg width="44" height="44" viewBox="0 0 44 44" fill="none" xmlns="http://www.w3.org/2000/svg">
<mask id="mask0_68_363" style="mask-type:alpha" maskUnits="userSpaceOnUse" x="10" y="10" width="24" height="24">
<rect x="10" y="10" width="24" height="24" fill="#D9D9D9"/>
</mask>
<g mask="url(#mask0_68_363)">
<path d="M29.8 32.6L25.6 28.4501C25.0167 28.6334 24.4292 28.7709 23.8375 28.8626C23.2458 28.9542 22.6333 29 22 29C19.4833 29 17.2417 28.3042 15.275 26.9125C13.3083 25.5209 11.8833 23.7167 11 21.5C11.35 20.6167 11.7917 19.7959 12.325 19.0375C12.8583 18.2792 13.4667 17.6 14.15 17L11.4 14.2L12.8 12.8L31.2 31.2001L29.8 32.6ZM22 26C22.1833 26 22.3542 25.9917 22.5125 25.975C22.6708 25.9584 22.8417 25.925 23.025 25.875L17.625 20.475C17.575 20.6584 17.5417 20.8292 17.525 20.9875C17.5083 21.1459 17.5 21.3167 17.5 21.5C17.5 22.75 17.9375 23.8125 18.8125 24.6875C19.6875 25.5625 20.75 26 22 26ZM29.3 26.4501L26.125 23.3C26.2417 23.0167 26.3333 22.7292 26.4 22.4375C26.4667 22.1459 26.5 21.8334 26.5 21.5C26.5 20.25 26.0625 19.1875 25.1875 18.3125C24.3125 17.4375 23.25 17 22 17C21.6667 17 21.3542 17.0334 21.0625 17.1C20.7708 17.1667 20.4833 17.2667 20.2 17.4L17.65 14.85C18.3333 14.5667 19.0333 14.3542 19.75 14.2125C20.4667 14.0709 21.2167 14 22 14C24.5167 14 26.7583 14.6959 28.725 16.0875C30.6917 17.4792 32.1167 19.2834 33 21.5C32.6167 22.4834 32.1125 23.3959 31.4875 24.2375C30.8625 25.0792 30.1333 25.8167 29.3 26.4501ZM24.675 21.85L21.675 18.85C22.1417 18.7667 22.5708 18.8042 22.9625 18.9625C23.3542 19.1209 23.6917 19.35 23.975 19.65C24.2583 19.95 24.4625 20.2959 24.5875 20.6875C24.7125 21.0792 24.7417 21.4667 24.675 21.85Z" fill="#8E8E93"/>
</g>
</svg>
