<svg width="100" height="100" viewBox="0 0 100 100" fill="none" xmlns="http://www.w3.org/2000/svg">
<path d="M30.0597 49.7957C28.1674 43.4001 28.3031 29.4431 39.0591 26.1371C49.815 22.831 55.691 27.5148 57.882 30.2698C63.0607 27.318 68.853 29.788 71.6256 34.9926C74.6134 40.6011 72.1872 48.7134 69.4982 49.7957M30.0597 49.7957C46.1935 51.8619 57.882 40.6011 57.882 40.6011C60.8697 45.619 69.4982 49.7957 69.4982 49.7957M30.0597 49.7957C29.1634 49.5001 27.4408 50.0231 27.072 52.4519C26.1757 58.3554 33.9438 61.898 33.9438 61.898C35.2385 66.6209 40.2181 74 49.7789 74C59.3397 74 64.3194 66.6209 65.6141 61.898C65.6141 61.898 73.3822 58.3554 72.4859 52.4519C72.1171 50.0231 70.3944 49.5001 69.4982 49.7957" stroke="#33C284" stroke-width="3"/>
<path d="M45 55V59" stroke="#33C284" stroke-width="3" stroke-linecap="round"/>
<path d="M55 55V59" stroke="#33C284" stroke-width="3" stroke-linecap="round"/>
<path d="M26 13.5H19C15.9624 13.5 13.5 15.9624 13.5 19V26C13.5 27.6569 14.8431 29 16.5 29C18.1569 29 19.5 27.6569 19.5 26V20C19.5 19.7239 19.7239 19.5 20 19.5H26C27.6569 19.5 29 18.1569 29 16.5C29 14.8431 27.6569 13.5 26 13.5Z" stroke="#33C284" stroke-width="3"/>
<path d="M85.5 26L85.5 19C85.5 15.9624 83.0376 13.5 80 13.5L73 13.5C71.3431 13.5 70 14.8431 70 16.5C70 18.1569 71.3431 19.5 73 19.5L79 19.5C79.2761 19.5 79.5 19.7239 79.5 20L79.5 26C79.5 27.6569 80.8431 29 82.5 29C84.1569 29 85.5 27.6569 85.5 26Z" stroke="#33C284" stroke-width="3"/>
<path d="M73 85.5L80 85.5C83.0376 85.5 85.5 83.0376 85.5 80L85.5 73C85.5 71.3431 84.1569 70 82.5 70C80.8431 70 79.5 71.3431 79.5 73L79.5 79C79.5 79.2761 79.2761 79.5 79 79.5L73 79.5C71.3431 79.5 70 80.8431 70 82.5C70 84.1569 71.3431 85.5 73 85.5Z" stroke="#33C284" stroke-width="3"/>
<path d="M13.5 73L13.5 80C13.5 83.0376 15.9624 85.5 19 85.5L26 85.5C27.6569 85.5 29 84.1569 29 82.5C29 80.8431 27.6569 79.5 26 79.5L20 79.5C19.7239 79.5 19.5 79.2761 19.5 79L19.5 73C19.5 71.3431 18.1569 70 16.5 70C14.8431 70 13.5 71.3431 13.5 73Z" stroke="#33C284" stroke-width="3"/>
</svg>
