<svg width="50" height="50" viewBox="0 0 50 50" fill="none" xmlns="http://www.w3.org/2000/svg">
<g clip-path="url(#clip0_73_343)">
<path d="M24.5 7.5C21.8669 7.5 19.2803 8.19309 17 9.50962C14.7197 10.8261 12.8261 12.7197 11.5096 15C10.1931 17.2803 9.49998 19.867 9.49998 22.5C9.49998 25.133 10.1931 27.7197 11.5096 30C12.8261 32.2803 14.7197 34.1739 17 35.4904C19.2803 36.8069 21.8669 37.5 24.5 37.5C27.133 37.5 29.7197 36.8069 32 35.4904C34.2803 34.1739 36.1738 32.2803 37.4904 30" stroke="#33C284" stroke-width="2"/>
<path d="M37.4904 30C36.1738 32.2803 34.2803 34.1739 32 35.4904C29.7197 36.8069 27.133 37.5 24.5 37.5C21.8669 37.5 19.2803 36.8069 17 35.4904C14.7197 34.1739 12.8261 32.2803 11.5096 30C10.1931 27.7197 9.49998 25.133 9.49998 22.5C9.49998 19.8669 10.1931 17.2803 11.5096 15C12.8261 12.7197 14.7197 10.8261 17 9.50962C19.2803 8.19309 21.8669 7.5 24.5 7.5C26 7.58333 29.25 7.74994 31.75 8.99994C34.5518 10.4008 36.25 11.9999 38 13.4999C39.75 14.9999 41.75 16.5 41.75 16.5C35.75 19.2499 30.5 19.0499 27.25 17.7499C24 16.4499 21.5 14.5096 21 9.50962C23.5833 10.9263 31.7 14.0999 33.5 14.4999" stroke="#33C284" stroke-width="2"/>
<path d="M35.1066 41.8934C33.7137 40.5005 32.0601 39.3956 30.2403 38.6418C28.4204 37.888 26.4698 37.5 24.5 37.5C22.5302 37.5 20.5796 37.888 18.7597 38.6418C16.9399 39.3956 15.2863 40.5005 13.8934 41.8934" stroke="#33C284" stroke-width="2"/>
<path d="M24.3888 37.25C21.7997 37.25 19.2561 36.5685 17.0138 35.2739C15.6304 34.4752 14.3918 33.4605 13.3419 32.2738C16.1849 29.4759 20.0851 27.75 24.3888 27.75C28.6925 27.75 32.5927 29.4758 35.4358 32.2738C34.3858 33.4605 33.1472 34.4752 31.7638 35.2739C29.5215 36.5685 26.978 37.25 24.3888 37.25Z" fill="#33C284" stroke="#33C284" stroke-width="0.5"/>
</g>
<defs>
<clipPath id="clip0_73_343">
<rect width="50" height="50" fill="white"/>
</clipPath>
</defs>
</svg>
