<svg width="100" height="100" viewBox="0 0 100 100" fill="none" xmlns="http://www.w3.org/2000/svg">
<path d="M48.9999 15C43.7338 15 38.5605 16.3862 34 19.0192C29.4394 21.6523 25.6522 25.4394 23.0192 30C20.3861 34.5606 19 39.7339 19 45C19 50.2661 20.3861 55.4394 23.0192 60C25.6522 64.5606 29.4394 68.3477 34 70.9808C38.5605 73.6138 43.7339 75 49 75C54.2661 75 59.4394 73.6138 64 70.9808C68.5605 68.3477 72.3477 64.5606 74.9807 60" stroke="white" stroke-width="4"/>
<path d="M74.9807 60.0001C72.3477 64.5607 68.5605 68.3478 64 70.9809C59.4394 73.6139 54.2661 75.0001 49 75.0001C43.7339 75.0001 38.5605 73.6139 34 70.9809C29.4394 68.3478 25.6522 64.5607 23.0192 60.0001C20.3861 55.4395 19 50.2662 19 45.0001C19 39.734 20.3861 34.5607 23.0192 30.0001C25.6522 25.4395 29.4394 21.6524 34 19.0194C38.5605 16.3863 43.7338 15.0001 48.9999 15.0001C52 15.1668 58.5 15.5 63.5 18C69.1036 20.8018 72.5 24 76 27C78.2454 28.9246 80.6965 30.8493 82.1653 31.9818C82.7658 32.4448 82.6581 33.3838 81.9611 33.6823C70.6047 38.5457 60.7206 38.9882 54.5 36.5C48 33.9 43 29.0192 42 19.0194C47.5 22.5 55 28.5001 66.5 30.0001" stroke="white" stroke-width="4" stroke-linecap="round"/>
<path d="M70.2132 83.7868C67.4274 81.001 64.1202 78.7913 60.4805 77.2836C56.8407 75.776 52.9396 75 48.9999 75C45.0603 75 41.1592 75.776 37.5194 77.2836C33.8797 78.7913 30.5725 81.001 27.7867 83.7868" stroke="white" stroke-width="4" stroke-linecap="round"/>
<path d="M48.7776 74.5C43.5993 74.5 38.5122 73.1369 34.0276 70.5477C31.2609 68.9504 28.7836 66.921 26.6837 64.5476C32.3698 58.9517 40.1702 55.5 48.7776 55.5C57.3851 55.5 65.1854 58.9517 70.8716 64.5476C68.7717 66.921 66.2944 68.9504 63.5276 70.5477C59.0431 73.1369 53.956 74.5 48.7776 74.5Z" fill="white" stroke="white"/>
</svg>
