<svg width="100" height="100" viewBox="0 0 100 100" fill="none" xmlns="http://www.w3.org/2000/svg">
<path d="M71 65.5V26C71 23.7909 69.2091 22 67 22H29.5H25.25M71 65.5H73.25C76.7018 65.5 79.5 68.2982 79.5 71.75V71.75V71.75C79.5 75.2018 76.7018 78 73.25 78H41H35.25M71 65.5H41H38.5752C37.6067 65.5 37.2664 66.6503 38.0359 67.2384C39.5614 68.4045 41 69.9945 41 72.5C41 76.5 37.1667 77.1667 35.25 78M29.5 47V74C29.5 76.2091 31.2909 78 33.5 78H35.25M29.5 47H25C22.7909 47 21 45.2091 21 43V26C21 23.7909 22.7909 22 25 22H25.25M29.5 47V26.5C29.5 25 28.25 22 25.25 22" stroke="#33C284" stroke-width="3"/>
<path d="M37 31H64M37 39.5H64M37 56H64M37 48H64" stroke="#33C284" stroke-width="3" stroke-linecap="round"/>
</svg>
