<svg width="92" height="24" viewBox="0 0 92 24" fill="none" xmlns="http://www.w3.org/2000/svg">
<mask id="mask0_51_327" style="mask-type:alpha" maskUnits="userSpaceOnUse" x="0" y="0" width="24" height="24">
<rect width="24" height="24" fill="#D9D9D9"/>
</mask>
<g mask="url(#mask0_51_327)">
<path d="M11.16 14.76L15.39 10.53L14.55 9.69L11.16 13.08L9.45 11.37L8.61 12.21L11.16 14.76ZM12 18C11.17 18 10.39 17.8425 9.66 17.5275C8.93 17.2125 8.295 16.785 7.755 16.245C7.215 15.705 6.7875 15.07 6.4725 14.34C6.1575 13.61 6 12.83 6 12C6 11.17 6.1575 10.39 6.4725 9.66C6.7875 8.93 7.215 8.295 7.755 7.755C8.295 7.215 8.93 6.7875 9.66 6.4725C10.39 6.1575 11.17 6 12 6C12.83 6 13.61 6.1575 14.34 6.4725C15.07 6.7875 15.705 7.215 16.245 7.755C16.785 8.295 17.2125 8.93 17.5275 9.66C17.8425 10.39 18 11.17 18 12C18 12.83 17.8425 13.61 17.5275 14.34C17.2125 15.07 16.785 15.705 16.245 16.245C15.705 16.785 15.07 17.2125 14.34 17.5275C13.61 17.8425 12.83 18 12 18Z" fill="#33C284"/>
</g>
<path d="M35.082 6.99609V17.5195H33.9688V6.99609H35.082ZM28.0859 7.875V10.5703H30.9102V7.875H32.0117V15H26.9727V7.875H28.0859ZM28.0859 14.0859H30.9102V11.4492H28.0859V14.0859ZM42.3008 7.55859V11.8828H37.3086V7.55859H42.3008ZM38.3984 8.46094V11.0156H41.1992V8.46094H38.3984ZM45.4531 6.99609V12.375H44.3516V6.99609H45.4531ZM45.4531 12.8789V15.4922H39.6758V16.5H45.793V17.3906H38.5859V14.6836H44.3633V13.7461H38.5625V12.8789H45.4531ZM55.8828 7.00781V14.7656H54.7695V10.8047H52.4727V13.0195H47.6328V7.69922H48.7461V9.48047H51.3711V7.69922H52.4727V9.90234H54.7695V7.00781H55.8828ZM56.1172 16.3711V17.2734H49.0273V14.0039H50.1523V16.3711H56.1172ZM48.7461 12.1172H51.3711V10.3359H48.7461V12.1172ZM66.5938 8.47266V9.375H57.957V8.47266H61.7305V7.14844H62.832V8.47266H66.5938ZM67.1094 15.4102V16.3125H57.5V15.4102H61.7305V14.0156C59.8906 13.9043 58.7773 13.1777 58.7773 12.0117C58.7773 10.7461 60.1133 10.0078 62.2812 10.0078C64.4258 10.0078 65.7734 10.7461 65.7734 12.0117C65.7734 13.1777 64.6543 13.9043 62.832 14.0156V15.4102H67.1094ZM62.2812 10.8867C60.7812 10.8867 59.9023 11.2852 59.9141 12.0117C59.9023 12.7383 60.7812 13.1367 62.2812 13.1484C63.7578 13.1367 64.6367 12.7383 64.6367 12.0117C64.6367 11.2852 63.7578 10.8867 62.2812 10.8867ZM73.7773 7.34766C75.3594 7.35938 76.5195 8.33203 76.5312 9.70312C76.5195 11.0859 75.3594 12.0469 73.7773 12.0469C72.1836 12.0469 71.0117 11.0859 71.0117 9.70312C71.0117 8.33203 72.1836 7.35938 73.7773 7.34766ZM73.7773 8.28516C72.8047 8.27344 72.0898 8.84766 72.1016 9.70312C72.0898 10.5703 72.8047 11.1445 73.7773 11.1445C74.7383 11.1445 75.4531 10.5703 75.4531 9.70312C75.4531 8.84766 74.7383 8.27344 73.7773 8.28516ZM79.5078 6.99609V12.3398H78.3945V6.99609H79.5078ZM79.5078 12.8203V15.4688H73.7188V16.4766H79.8594V17.3672H72.6406V14.6367H78.4062V13.7109H72.6055V12.8203H79.5078ZM89.8672 6.99609V17.4961H88.7539V6.99609H89.8672ZM85.1211 10.3711C85.1211 12.0469 86.2344 13.7578 87.8633 14.4492L87.2539 15.3047C86.0469 14.7773 85.0801 13.6875 84.5938 12.3633C84.1191 13.7637 83.1699 14.9297 81.9453 15.4805L81.3242 14.625C82.9531 13.8984 84.0312 12.1289 84.0312 10.3711V9.67969H81.6406V8.78906H84.0195V7.20703H85.1211V8.78906H87.4766V9.67969H85.1211V10.3711Z" fill="#33C284"/>
</svg>
