<svg width="102" height="24" viewBox="0 0 102 24" fill="none" xmlns="http://www.w3.org/2000/svg">
<mask id="mask0_51_326" style="mask-type:alpha" maskUnits="userSpaceOnUse" x="0" y="0" width="24" height="24">
<rect width="24" height="24" fill="#D9D9D9"/>
</mask>
<g mask="url(#mask0_51_326)">
<path d="M9.84 15L12 12.84L14.16 15L15 14.16L12.84 12L15 9.84L14.16 9L12 11.16L9.84 9L9 9.84L11.16 12L9 14.16L9.84 15ZM12 18C11.17 18 10.39 17.8425 9.66 17.5275C8.93 17.2125 8.295 16.785 7.755 16.245C7.215 15.705 6.7875 15.07 6.4725 14.34C6.1575 13.61 6 12.83 6 12C6 11.17 6.1575 10.39 6.4725 9.66C6.7875 8.93 7.215 8.295 7.755 7.755C8.295 7.215 8.93 6.7875 9.66 6.4725C10.39 6.1575 11.17 6 12 6C12.83 6 13.61 6.1575 14.34 6.4725C15.07 6.7875 15.705 7.215 16.245 7.755C16.785 8.295 17.2125 8.93 17.5275 9.66C17.8425 10.39 18 11.17 18 12C18 12.83 17.8425 13.61 17.5275 14.34C17.2125 15.07 16.785 15.705 16.245 16.245C15.705 16.785 15.07 17.2125 14.34 17.5275C13.61 17.8425 12.83 18 12 18Z" fill="#FF0000"/>
</g>
<path d="M35.082 6.99609V17.5195H33.9688V6.99609H35.082ZM28.0859 7.875V10.5703H30.9102V7.875H32.0117V15H26.9727V7.875H28.0859ZM28.0859 14.0859H30.9102V11.4492H28.0859V14.0859ZM42.3008 7.55859V11.8828H37.3086V7.55859H42.3008ZM38.3984 8.46094V11.0156H41.1992V8.46094H38.3984ZM45.4531 6.99609V12.375H44.3516V6.99609H45.4531ZM45.4531 12.8789V15.4922H39.6758V16.5H45.793V17.3906H38.5859V14.6836H44.3633V13.7461H38.5625V12.8789H45.4531ZM55.8828 7.00781V14.7656H54.7695V10.8047H52.4727V13.0195H47.6328V7.69922H48.7461V9.48047H51.3711V7.69922H52.4727V9.90234H54.7695V7.00781H55.8828ZM56.1172 16.3711V17.2734H49.0273V14.0039H50.1523V16.3711H56.1172ZM48.7461 12.1172H51.3711V10.3359H48.7461V12.1172ZM66.5938 8.47266V9.375H57.957V8.47266H61.7305V7.14844H62.832V8.47266H66.5938ZM67.1094 15.4102V16.3125H57.5V15.4102H61.7305V14.0156C59.8906 13.9043 58.7773 13.1777 58.7773 12.0117C58.7773 10.7461 60.1133 10.0078 62.2812 10.0078C64.4258 10.0078 65.7734 10.7461 65.7734 12.0117C65.7734 13.1777 64.6543 13.9043 62.832 14.0156V15.4102H67.1094ZM62.2812 10.8867C60.7812 10.8867 59.9023 11.2852 59.9141 12.0117C59.9023 12.7383 60.7812 13.1367 62.2812 13.1484C63.7578 13.1367 64.6367 12.7383 64.6367 12.0117C64.6367 11.2852 63.7578 10.8867 62.2812 10.8867ZM73.1562 7.16016V8.07422H78.0195V7.16016H79.1328V10.6406H72.0547V7.16016H73.1562ZM73.1562 9.79688H78.0195V8.89453H73.1562V9.79688ZM80.375 11.4023V12.3047H76.1328V13.207H79.168V15.6562H73.0508V16.5352H79.4609V17.3906H71.9609V14.8594H78.0664V14.0391H71.9492V13.207H75.0195V12.3047H70.8008V11.4023H80.375ZM84.1484 7.34766C85.7305 7.35938 86.8906 8.33203 86.9023 9.70312C86.8906 11.0859 85.7305 12.0469 84.1484 12.0469C82.5547 12.0469 81.3828 11.0859 81.3828 9.70312C81.3828 8.33203 82.5547 7.35938 84.1484 7.34766ZM84.1484 8.28516C83.1758 8.27344 82.4609 8.84766 82.4727 9.70312C82.4609 10.5703 83.1758 11.1445 84.1484 11.1445C85.1094 11.1445 85.8242 10.5703 85.8242 9.70312C85.8242 8.84766 85.1094 8.27344 84.1484 8.28516ZM89.8789 6.99609V12.3398H88.7656V6.99609H89.8789ZM89.8789 12.8203V15.4688H84.0898V16.4766H90.2305V17.3672H83.0117V14.6367H88.7773V13.7109H82.9766V12.8203H89.8789ZM100.238 6.99609V17.4961H99.125V6.99609H100.238ZM95.4922 10.3711C95.4922 12.0469 96.6055 13.7578 98.2344 14.4492L97.625 15.3047C96.418 14.7773 95.4512 13.6875 94.9648 12.3633C94.4902 13.7637 93.541 14.9297 92.3164 15.4805L91.6953 14.625C93.3242 13.8984 94.4023 12.1289 94.4023 10.3711V9.67969H92.0117V8.78906H94.3906V7.20703H95.4922V8.78906H97.8477V9.67969H95.4922V10.3711Z" fill="#FF0000"/>
</svg>
