<svg width="44" height="44" viewBox="0 0 44 44" fill="none" xmlns="http://www.w3.org/2000/svg">
<circle cx="22" cy="22" r="9.5" stroke="#8E8E93"/>
<path d="M25 19.9186C25.0007 19.2762 24.7721 18.6516 24.3499 18.1418C23.9277 17.632 23.3355 17.2655 22.6651 17.0993C21.9948 16.9331 21.284 16.9764 20.643 17.2226C20.002 17.4688 19.4668 17.904 19.1205 18.4607C19.0012 18.6522 18.9689 18.8797 19.0307 19.0931C19.0926 19.3066 19.2435 19.4887 19.4504 19.5991C19.6572 19.7096 19.9029 19.7395 20.1336 19.6822C20.3642 19.625 20.5608 19.4853 20.6802 19.2938C20.7987 19.1037 20.9693 18.9459 21.1747 18.8362C21.38 18.7265 21.613 18.6688 21.8501 18.669C22.2081 18.669 22.5515 18.8006 22.8047 19.035C23.0578 19.2693 23.2001 19.5872 23.2001 19.9186C23.2001 20.2501 23.0578 20.5679 22.8047 20.8023C22.5515 21.0366 22.2081 21.1683 21.8501 21.1683H21.8474C21.7894 21.174 21.7321 21.1848 21.6764 21.2008C21.616 21.2063 21.5563 21.2174 21.4982 21.2341C21.4489 21.2592 21.4022 21.2884 21.3587 21.3216C21.307 21.3476 21.2582 21.3783 21.2129 21.4132C21.1725 21.458 21.1372 21.5066 21.1076 21.5582C21.0748 21.5957 21.0456 21.6359 21.0203 21.6781C21.0006 21.7355 20.9876 21.7948 20.9816 21.8548C20.9664 21.9027 20.9559 21.9517 20.9501 22.0014V22.8345L20.9519 22.8436V23.2527C20.9524 23.4734 21.0475 23.6848 21.2162 23.8407C21.3849 23.9966 21.6135 24.0841 21.8519 24.0841H21.8546C21.9728 24.0839 22.0898 24.0622 22.1989 24.0201C22.308 23.978 22.4071 23.9165 22.4905 23.839C22.5739 23.7614 22.64 23.6695 22.685 23.5683C22.73 23.4672 22.753 23.3588 22.7528 23.2494L22.751 22.6979C23.399 22.5202 23.9678 22.1539 24.3729 21.6532C24.7781 21.1525 24.998 20.5442 25 19.9186ZM21.2174 25.5754C21.0911 25.6914 21.0047 25.8395 20.9692 26.001C20.9338 26.1625 20.9509 26.33 21.0183 26.4825C21.0857 26.635 21.2005 26.7656 21.3481 26.8577C21.4957 26.9498 21.6694 26.9993 21.8474 27C22.0859 26.9978 22.3144 26.9113 22.4864 26.7584C22.6535 26.6004 22.7471 26.388 22.7471 26.1669C22.7471 25.9458 22.6535 25.7334 22.4864 25.5754C22.3141 25.4268 22.0874 25.3441 21.8519 25.3441C21.6164 25.3441 21.3897 25.4268 21.2174 25.5754Z" fill="#8E8E93"/>
</svg>
