<svg width="80" height="40" viewBox="0 0 80 40" fill="none" xmlns="http://www.w3.org/2000/svg">
<path d="M28.7539 13.1483C28.7539 10.722 29.7414 8.39511 31.4992 6.67947C33.257 4.96383 35.6411 4 38.1269 4C40.6128 4 42.9969 4.96383 44.7547 6.67947C46.5125 8.39511 47.5 10.722 47.5 13.1483C47.5 13.4718 47.3683 13.782 47.134 14.0108C46.8996 14.2395 46.5817 14.3681 46.2503 14.3681C45.9188 14.3681 45.6009 14.2395 45.3666 14.0108C45.1322 13.782 45.0005 13.4718 45.0005 13.1483C45.0005 11.369 44.2763 9.66262 42.9873 8.40449C41.6982 7.14635 39.9499 6.43954 38.1269 6.43954C36.304 6.43954 34.5556 7.14635 33.2666 8.40449C31.9775 9.66262 31.2534 11.369 31.2534 13.1483C31.2534 13.4718 31.1217 13.782 30.8873 14.0108C30.653 14.2395 30.3351 14.3681 30.0036 14.3681C29.6722 14.3681 29.3543 14.2395 29.1199 14.0108C28.8856 13.782 28.7539 13.4718 28.7539 13.1483ZM50.6243 19.857C49.8953 19.8562 49.1777 20.034 48.5373 20.3739C48.3459 19.7959 48.0303 19.2644 47.6117 18.8149C47.193 18.3654 46.6809 18.0083 46.1096 17.7674C45.5382 17.5266 44.9208 17.4075 44.2985 17.4181C43.6762 17.4288 43.0634 17.5689 42.501 17.8292V13.1483C42.501 12.016 42.0402 10.9301 41.2199 10.1295C40.3996 9.32887 39.287 8.87909 38.1269 8.87909C36.9669 8.87909 35.8543 9.32887 35.034 10.1295C34.2137 10.9301 33.7529 12.016 33.7529 13.1483V25.346L33.1561 24.4113C32.5725 23.4325 31.6145 22.7201 30.4927 22.4307C29.371 22.1414 28.1774 22.2988 27.1745 22.8683C26.1717 23.4379 25.4417 24.373 25.1452 25.4678C24.8488 26.5627 25.01 27.7277 25.5936 28.7065L30.1739 36.33C30.2507 36.4785 30.3578 36.6101 30.4887 36.7167C30.6195 36.8233 30.7713 36.9026 30.9347 36.9498C31.0981 36.997 31.2697 37.0111 31.4389 36.9912C31.6081 36.9714 31.7714 36.9179 31.9186 36.8342C32.0659 36.7504 32.194 36.6382 32.2952 36.5043C32.3964 36.3705 32.4684 36.2178 32.5069 36.0558C32.5454 35.8938 32.5496 35.7258 32.5191 35.5621C32.4886 35.3985 32.4242 35.2426 32.3297 35.1042L27.7541 27.4806C27.6256 27.2723 27.541 27.0412 27.5051 26.8007C27.4692 26.5601 27.4827 26.315 27.545 26.0796C27.6072 25.8443 27.7169 25.6234 27.8676 25.4298C28.0183 25.2363 28.207 25.074 28.4226 24.9524C28.6383 24.8309 28.8766 24.7525 29.1237 24.7218C29.3708 24.6912 29.6216 24.7089 29.8616 24.7739C30.1016 24.8389 30.3259 24.95 30.5214 25.1006C30.7169 25.2512 30.8797 25.4383 31.0003 25.6509L31.0222 25.686L33.9403 30.2602C34.0836 30.4858 34.2984 30.6597 34.5521 30.7554C34.8058 30.8511 35.0845 30.8634 35.346 30.7904C35.6075 30.7175 35.8375 30.5632 36.0011 30.3511C36.1647 30.139 36.2529 29.8807 36.2523 29.6152V13.1483C36.2523 12.663 36.4498 12.1976 36.8014 11.8545C37.153 11.5114 37.6298 11.3186 38.1269 11.3186C38.6241 11.3186 39.1009 11.5114 39.4525 11.8545C39.8041 12.1976 40.0016 12.663 40.0016 13.1483V23.5163C40.0016 23.8398 40.1332 24.1501 40.3676 24.3788C40.602 24.6076 40.9198 24.7361 41.2513 24.7361C41.5827 24.7361 41.9006 24.6076 42.135 24.3788C42.3694 24.1501 42.501 23.8398 42.501 23.5163V21.6867C42.501 21.2014 42.6985 20.736 43.0501 20.3929C43.4017 20.0498 43.8785 19.857 44.3756 19.857C44.8728 19.857 45.3496 20.0498 45.7012 20.3929C46.0528 20.736 46.2503 21.2014 46.2503 21.6867V24.7361C46.2503 25.0596 46.3819 25.3699 46.6163 25.5986C46.8507 25.8274 47.1685 25.9559 47.5 25.9559C47.8314 25.9559 48.1493 25.8274 48.3837 25.5986C48.6181 25.3699 48.7497 25.0596 48.7497 24.7361V24.1262C48.7497 23.641 48.9472 23.1756 49.2988 22.8325C49.6504 22.4893 50.1272 22.2966 50.6243 22.2966C51.1215 22.2966 51.5983 22.4893 51.9499 22.8325C52.3015 23.1756 52.499 23.641 52.499 24.1262V29.6152C52.499 32.9101 51.3898 35.1499 51.3804 35.1682C51.2324 35.4576 51.2081 35.7924 51.313 36.0992C51.4179 36.406 51.6433 36.6596 51.9397 36.8042C52.1131 36.8898 52.3047 36.9342 52.499 36.9338C52.7311 36.934 52.9588 36.871 53.1563 36.752C53.3539 36.6329 53.5136 36.4626 53.6175 36.2599C53.6753 36.1486 55 33.5154 55 29.6152V24.1262C55 23.5655 54.8868 23.0102 54.6669 22.4921C54.447 21.9741 54.1246 21.5034 53.7183 21.1069C53.312 20.7105 52.8296 20.396 52.2987 20.1816C51.7678 19.9671 51.1989 19.8568 50.6243 19.857Z" fill="#AEAEB2"/>
</svg>
